# xmcd
#
# Track frame offsets:
#	150
#	12390
#	27515
#	44668
#	57813
#	73988
#	92060
#	102793
#	119510
#	136988
#	152273
#	169838
#	184203
#	196743
#	210633
#	224995
#
# Disc length: 3231 seconds
#
# Revision: 1
# Processed by: cddbd v1.5.2PL0 Copyright (c) Steve Scherf et al.
# Submitted via: audiograbber 1.83.01
#
DISCID=ef0c9d10
DTITLE=AMADO BATISTA - OS GRANDES SUCESSOS DE
DYEAR=1900
DGENRE=
TTITLE0=VITAMINA E CURA
TTITLE1=VEM MORENA
TTITLE2=FOLHA SECA
TTITLE3=CASAMENTO FORÇADO
TTITLE4=CASA BONITA
TTITLE5=QUANDO EU FOR EMBORA
TTITLE6=LISTA DE COMPRAS
TTITLE7=AH! SE EU PUDESSE
TTITLE8=CARTA SOBRE A MESA
TTITLE9=O ACIDENTE
TTITLE10=O JUGAMENTO
TTITLE11=O RELÓGIO ATRASOU
TTITLE12=SERENATA
TTITLE13=O FRUTO DO NOSSO AMOR
TTITLE14=BORBOLETAS
TTITLE15=DESISTO
EXTD=
EXTT0=
EXTT1=
EXTT2=
EXTT3=
EXTT4=
EXTT5=
EXTT6=
EXTT7=
EXTT8=
EXTT9=
EXTT10=
EXTT11=
EXTT12=
EXTT13=
EXTT14=
EXTT15=
PLAYORDER=
